<svg id="Ebene_1" data-name="Ebene 1" xmlns="http://www.w3.org/2000/svg" viewBox="0 0 436.99 121.2">
  <defs>
    <style>
      .cls-1 {
        fill: #00192d;
      }

      .cls-2 {
        fill: #425159;
      }
    </style>
  </defs>
  <g id="g10">
    <polygon id="polygon4" class="cls-1" points="109.8 37.5 135.2 37.5 117.9 120.4 92.6 120.4 109.8 37.5"/>
    <polygon id="polygon6" class="cls-1" points="242.3 0 237.1 23.9 185.9 23.9 165.3 120.3 140.4 120.3 160.7 23.9 4.4 23.9 9.5 0 242.3 0"/>
    <path id="path8" class="cls-2" d="M25.4,49.1l2.4-11.6H17.5L15.1,49.1ZM10.3,120.3,23,60.3H12.7L0,120.3Zm26.1,0,5.9-27.9c2-9.1,5.1-15.6,9.3-19.4A20.75,20.75,0,0,1,66,67.4c2.7,0,4.7.6,6.1,1.9a6.21,6.21,0,0,1,2.1,4.9,37.68,37.68,0,0,1-1.3,8.2l-8.5,38H74.7l8.2-36.2a60.79,60.79,0,0,0,1.6-10.5c0-4.4-1.4-8-4.2-10.6s-6.7-4-11.7-4a23.35,23.35,0,0,0-11,2.8,49.77,49.77,0,0,0-11.5,9l2.2-10.5H38.9l-12.7,60H36.4Z"/>
  </g>
  <rect id="rect12" class="cls-2" x="273.8" y="0.1" width="2.4" height="120.4"/>
  <path id="path14" class="cls-2" d="M430.7.4a8.33,8.33,0,0,0-2.2-.3,7.61,7.61,0,0,0-2.1.3h0c-.2,0-.3.1-.5.1s-.3.1-.4.1-.2.1-.3.1-.2.1-.4.2-.3.2-.5.2-.2.1-.3.2-.2.1-.3.2-.2.1-.3.2a1.76,1.76,0,0,0-.5.4l-.2.2-.3.3-.2.2a1.76,1.76,0,0,0-.4.5l-.1.1c-.1.2-.2.3-.3.5s-.1.1-.1.2a2.09,2.09,0,0,1-.4.6v.1l-.3.6c0,.1-.1.1-.1.2a1.85,1.85,0,0,0-.2.7l-3.8,14.3,14.2-3.8a8.26,8.26,0,0,0,6-6.1,8.35,8.35,0,0,0-6-10.3m6.1,10.3h0M421.6,1.8l.1-.1L384.1,11.8h.2c.1,0,.2.1.3.1a4.88,4.88,0,0,1,.7.3.1.1,0,0,1,.1.1h0l.6.3a.35.35,0,0,1,.2.1,4.35,4.35,0,0,1,.7.4.1.1,0,0,1,.1.1,2.65,2.65,0,0,1,.6.5c.1,0,.1.1.2.1a4.35,4.35,0,0,1,.7.6l10.6,10.2.5.5,15.5-4.2.2-.7L419.1,6c.1-.3.2-.5.3-.8,0-.1.1-.1.1-.2a4.88,4.88,0,0,1,.3-.7V4.2a2.51,2.51,0,0,1,.4-.7c0-.1.1-.1.1-.2a2.18,2.18,0,0,1,.4-.5h0l.1-.1a2.65,2.65,0,0,1,.5-.6c.2-.2.2-.3.3-.3M384.3,13c-.1,0-.2-.1-.3-.1s-.3-.1-.4-.1a.37.37,0,0,1-.3-.1c-.2,0-.4-.1-.6-.1h-2.2c-.3.1-.6.1-.9.2a9.83,9.83,0,0,0-3.7,2.1c-.1.1-.1.1-.1.2a8.39,8.39,0,0,0-2.1,8.2,9.83,9.83,0,0,0,2.1,3.7,8.39,8.39,0,0,0,8.2,2.2l14.2-3.8L387.8,15a2.65,2.65,0,0,0-.6-.5c-.1,0-.1-.1-.2-.1s-.4-.3-.6-.4h-.1c-.2-.1-.4-.3-.6-.4s-.1-.1-.2-.1-.3-.2-.5-.2-.1,0-.2-.1a1.69,1.69,0,0,1-.5-.2m-8.6,2.2.1-.1-.1.1c-.1.1,0,.1,0,0m.1-.1h0M373,79.2l2.5,39.9a1.39,1.39,0,0,0,1.5,1.4h3.5a1.71,1.71,0,0,0,1.7-1.2l5-13.6,5,13.6a1.79,1.79,0,0,0,1.7,1.2h3.5a1.39,1.39,0,0,0,1.5-1.4l2.5-39.9a1.33,1.33,0,0,0-1.5-1.5h-4.5c-1,0-1.5.5-1.5,1.4l-1.8,24.2-2.9-7.1a1.63,1.63,0,0,0-1.7-1.1h-.3a1.75,1.75,0,0,0-1.7,1.1l-2.9,7-1.7-24.1a1.34,1.34,0,0,0-1.5-1.4h-4.7c-1.2,0-1.7.5-1.7,1.5m-7.8-10.6v-40a1.33,1.33,0,0,0-1.5-1.5h-5.1a1.33,1.33,0,0,0-1.5,1.5v16H346.4v-16a1.33,1.33,0,0,0-1.5-1.5h-5.1a1.33,1.33,0,0,0-1.5,1.5v40a1.33,1.33,0,0,0,1.5,1.5h5.1a1.33,1.33,0,0,0,1.5-1.5V52h10.7V68.6a1.33,1.33,0,0,0,1.5,1.5h5.1c1-.1,1.5-.5,1.5-1.5M341.7,80.3c-2.2,2.2-3.3,5.3-3.3,9.4v18.8c0,4.1,1.1,7.2,3.3,9.4s5.6,3.3,10,3.3,7.8-1.1,10-3.3,3.3-5.3,3.3-9.4V89.7c0-4.1-1.1-7.2-3.3-9.4s-5.6-3.3-10-3.3-7.8,1.1-10,3.3m4.7,8.8c0-3.1,1.8-4.7,5.4-4.7s5.4,1.6,5.4,4.7v20.1c0,3.1-1.8,4.7-5.4,4.7s-5.4-1.6-5.4-4.7ZM333,33.1V28.6a1.33,1.33,0,0,0-1.5-1.5H307.7a1.33,1.33,0,0,0-1.5,1.5V33a1.33,1.33,0,0,0,1.5,1.5h7.9v34a1.33,1.33,0,0,0,1.5,1.5h5.1a1.33,1.33,0,0,0,1.5-1.5v-34h7.9a1.27,1.27,0,0,0,1.4-1.4M406.6,58a9.2,9.2,0,0,1,0-5.2l3.8-14.2.2-.7L399.2,26.6l-.7.2-14.2,3.8a10.68,10.68,0,0,1-2.5.3,7.46,7.46,0,0,1-2.6-.4Zm1.2-4.8a8.42,8.42,0,0,0,2.3,8.3,8.58,8.58,0,0,0,5.9,2.4,8.48,8.48,0,0,0,8.3-6.8.6.6,0,0,1,.1-.4V54.4c0-.2-.1-.4-.1-.6a.37.37,0,0,0-.1-.3c0-.2-.1-.3-.1-.5s-.1-.2-.1-.3-.1-.4-.2-.6,0-.1-.1-.2a1.69,1.69,0,0,1-.2-.5c0-.1-.1-.1-.1-.2a2.09,2.09,0,0,0-.4-.6v-.1c-.1-.2-.3-.4-.4-.6s-.1-.1-.1-.2c-.2-.2-.3-.4-.5-.6L411.6,38.7Zm17.7-.2,10.1-37.6a9.25,9.25,0,0,1-4.5,2.6l-14.2,3.8-.7.2L412,37.6l.5.5,10.4,10.4a4.35,4.35,0,0,1,.6.7c0,.1.1.1.1.2.2.2.3.4.5.6a.1.1,0,0,0,.1.1,4.35,4.35,0,0,1,.4.7.35.35,0,0,0,.1.2l.3.6h0a.1.1,0,0,0,.1.1c.1.2.2.5.3.7s.1.2.1.3a.19.19,0,0,0,0,.3M410.7,79.2v39.9a1.33,1.33,0,0,0,1.5,1.5h21.2a1.33,1.33,0,0,0,1.5-1.5v-4.4a1.33,1.33,0,0,0-1.5-1.5H418.8v-34a1.33,1.33,0,0,0-1.5-1.5h-5.1a1.33,1.33,0,0,0-1.5,1.5"/>
</svg>
