<?xml version="1.0" encoding="UTF-8"?>
<svg xmlns="http://www.w3.org/2000/svg" width="325" height="165" viewBox="0 0 325 165">
  <defs>
    <style>
      .cls-1 { fill: #a30235; }
      .cls-2 { fill: #425159; }
      .cls-3 { fill: #2c373d; }
      .cls-4 { fill: #e40042; }
    </style>
  </defs>
  <path class="cls-4" d="M72.56,42.3c-1.12,0-1.77,.64-1.77,1.77v19.14h-12.86v-19.14c0-1.13-.64-1.77-1.77-1.77h-6.11c-1.12,0-1.77,.64-1.77,1.77v47.92c0,1.13,.64,1.77,1.77,1.77h6.11c1.12,0,1.77-.64,1.77-1.77v-19.94h12.86v19.94c0,1.13,.64,1.77,1.77,1.77h6.11c1.12,0,1.77-.64,1.77-1.77V44.07c0-1.13-.64-1.77-1.77-1.77h-6.11Zm-30.71,1.77c0-1.13-.64-1.77-1.77-1.77H11.45c-1.13,0-1.77,.64-1.77,1.77v5.31c0,1.13,.64,1.77,1.77,1.77h9.49v40.84c0,1.13,.64,1.77,1.77,1.77h6.11c1.13,0,1.77-.64,1.77-1.77V51.14h9.49c1.13,0,1.77-.64,1.77-1.77v-5.31Z"/>
  <path class="cls-4" d="M144.75,145.54v-40.84c0-1.13-.64-1.77-1.77-1.77h-6.11c-1.13,0-1.77,.64-1.77,1.77v47.92c0,1.13,.64,1.77,1.77,1.77h25.41c1.13,0,1.77-.64,1.77-1.77v-5.31c0-1.13-.64-1.77-1.77-1.77h-17.53Zm-28.06-42.61c-1.12,0-1.77,.56-1.85,1.69l-2.17,29.03-3.54-8.52c-.4-.96-1.05-1.37-2.01-1.37h-.4c-.96,0-1.61,.4-2.01,1.37l-3.54,8.36-2.09-28.86c-.08-1.12-.72-1.69-1.85-1.69h-5.63c-1.21,0-1.77,.64-1.77,1.85l3.05,47.92c.08,1.12,.64,1.69,1.77,1.69h4.18c1.05,0,1.69-.48,2.09-1.45l6.03-16.32,6.03,16.32c.4,.96,1.04,1.45,2.09,1.45h4.18c1.13,0,1.69-.56,1.77-1.69l3.06-47.92c0-1.21-.56-1.85-1.77-1.85h-5.63Zm-52.34,8.04c3.94,0,6.43,1.53,6.43,5.63v24.12c0,4.1-2.49,5.63-6.43,5.63s-6.43-1.53-6.43-5.63v-24.12c0-4.1,2.49-5.63,6.43-5.63m0-8.84c-10.93,0-16.08,5.71-16.08,15.28v22.51c0,9.57,5.15,15.28,16.08,15.28s16.08-5.71,16.08-15.28v-22.51c0-9.57-5.15-15.28-16.08-15.28"/>
  <path class="cls-4" d="M100.38,45.26c-4.5,0-8.62-3-9.85-7.56-1.46-5.44,1.77-11.03,7.21-12.49l56.12-15.04c5.44-1.46,11.03,1.77,12.49,7.21,1.46,5.44-1.77,11.04-7.21,12.49l-56.12,15.04c-.88,.24-1.77,.35-2.65,.35"/>
  <path class="cls-4" d="M141.48,86.34c-2.61,0-5.22-1-7.21-2.99l-41.09-41.09c-3.98-3.98-3.98-10.44,0-14.42,3.98-3.98,10.44-3.98,14.42,0l41.09,41.09c3.98,3.98,3.98,10.44,0,14.43-1.99,1.99-4.6,2.99-7.21,2.99"/>
  <path class="cls-2" d="M141.48,86.35c-.87,0-1.76-.11-2.65-.35-5.44-1.46-8.67-7.05-7.21-12.49l15.04-56.13c1.46-5.44,7.05-8.67,12.49-7.21,5.44,1.46,8.67,7.05,7.21,12.49l-15.04,56.13c-1.22,4.56-5.34,7.56-9.85,7.56"/>
  <path class="cls-3" d="M163.73,12.81c-2.49-2.49-6.21-3.62-9.85-2.64,.03,0,.07-.01,.1-.02-3.45,.89-6.33,3.55-7.32,7.23l-4.57,17.07,17.07-4.57c3.68-.99,6.35-3.87,7.23-7.32-.01,.03-.01,.07-.02,.1,.98-3.65-.15-7.36-2.64-9.85"/>
  <path class="cls-1" d="M90.54,32.42c-.91,3.4-.03,7.18,2.64,9.85-.02-.03-.05-.05-.07-.08,2.49,2.54,6.24,3.7,9.92,2.72l17.07-4.57-12.49-12.49c-2.7-2.7-6.53-3.56-9.95-2.61,.03,0,.07-.02,.1-.03-3.65,.98-6.3,3.81-7.21,7.21"/>
  <path class="cls-3" d="M144.12,86c3.4-.91,6.23-3.57,7.21-7.21-.01,.03-.02,.07-.03,.1,.95-3.43,.09-7.26-2.61-9.96l-12.49-12.49-4.57,17.07c-.99,3.68,.18,7.43,2.72,9.93-.03-.03-.05-.05-.08-.07,2.67,2.67,6.45,3.55,9.85,2.64"/>
  <g id="info-icon">
    <circle cx="252" cy="99" r="50" fill="none" stroke="#000000" stroke-width="9"/>
    <circle cx="252" cy="75" r="8.5" fill="#000000"/>
    <path fill="#000000" d="M239,90 h19 v27 h8 v10 h-30 v-10 h8 v-17 h-5 z"/>
  </g>
</svg>